<svg width="128" height="128" xmlns="http://www.w3.org/2000/svg">
	<g transform="translate(-331.000000, -195.000000)">
		<path d="M458.118436,207.381987 C457.213153,206.287833 455.531915,205.772937 454.109329,206.094747 L333.836141,238.533186 C332.348892,238.919358 331.249621,240.013512 331.120295,241.429476 C330.732317,242.909801 331.314284,244.325765 332.413555,245.226832 L360.994603,269.105128 L373.991867,305.340924 C374.509171,306.82125 375.802431,307.722317 377.28968,307.915403 L377.677658,307.915403 C378.970918,307.915403 380.393504,307.207422 380.975471,306.113268 L388.864358,292.790338 L411.561072,312.098932 C412.272365,312.613828 413.177647,313 414.147592,313 C414.53557,313 414.858885,313 415.052874,312.806914 C416.346135,312.420742 417.251417,311.71276 417.768721,310.425521 L458.765066,211.308068 C459.217707,210.08519 459.023718,208.669226 458.118436,207.381987 Z M412.531017,303.216979 L390.351607,284.42328 C389.640314,283.908384 388.735032,283.522212 387.765087,283.522212 L387.053794,283.522212 C385.954522,283.715298 384.855251,284.42328 384.337947,285.324348 L378.324288,295.364817 L368.624837,268.590232 L408.198596,249.088551 L393.196779,268.976404 C392.679475,269.877472 392.291497,270.77854 392.485486,271.872693 C392.679475,272.966847 393.196779,273.867915 393.972735,274.447173 C395.58931,275.734412 398.17583,275.34824 399.46909,273.739191 L424.364347,240.91458 C425.463618,239.434254 425.463618,237.439033 424.170358,236.151793 C423.071087,234.671467 421.066534,234.349657 419.385296,235.057639 L364.486405,261.832224 C364.292416,261.832224 364.292416,262.02531 364.098427,262.02531 L343.018287,244.518851 L448.483648,216.26394 L412.531017,303.216979 Z"/>
	</g>
</svg>