<svg width="128" height="128" xmlns="http://www.w3.org/2000/svg">
    <g stroke="none" stroke-width="1">
        <g transform="translate(-335.000000, -1045.000000)">
            <path d="M424.474269,1049 C437.727083,1049.01454 448.467169,1060.03642 448.481297,1073.63708 L448.481297,1104.39461 C448.481297,1107.06059 446.375366,1109.22179 443.77757,1109.22179 C441.179775,1109.22179 439.073844,1107.06059 439.073844,1104.39461 L439.073844,1073.63697 C439.059659,1065.36826 432.531459,1058.66885 424.474269,1058.65435 L369.007028,1058.65435 C360.949781,1058.66887 354.421581,1065.36837 354.407453,1073.63708 L354.407453,1145.04241 C354.407452,1153.32142 360.939765,1160.03693 369.007028,1160.05143 L409.104428,1160.05143 C411.702223,1160.05143 413.808155,1162.21263 413.808166,1164.8786 C413.808167,1167.54458 411.702235,1169.70588 409.10444,1169.70588 L369.007029,1169.70588 C355.744107,1169.69133 345,1158.65339 345,1145.0424 L345,1073.63791 C345.013728,1060.03728 355.753387,1049.01497 369.006224,1049 L424.474269,1049 Z M429.291503,1116.33306 C430.860121,1114.72885 433.398934,1114.73337 434.962118,1116.34316 L434.962118,1116.34316 L451.900749,1133.80543 L451.823537,1133.80537 L451.823537,1133.80537 L451.97517,1133.96961 C453.390411,1135.58804 453.339867,1138.07879 451.823537,1139.63491 C450.254931,1141.2447 447.711696,1141.2447 446.143079,1139.63491 L446.143079,1139.63491 L436.658507,1129.90142 L436.658507,1164.87949 C436.657703,1167.54488 434.552001,1169.70516 431.95478,1169.70516 C429.356974,1169.70516 427.251042,1167.54396 427.251042,1164.87799 L427.251042,1164.87799 L427.251042,1129.90151 L417.920684,1139.66138 C416.352067,1141.27116 413.808843,1141.27116 412.240226,1139.66138 C410.671608,1138.05159 410.671608,1135.44162 412.240226,1133.83184 L412.240226,1133.83184 L429.281658,1116.34316 L429.281658,1116.34316 Z M396.766837,1082.79023 C399.817907,1082.79023 401.384667,1084.31348 401.467128,1087.36 L401.470564,1087.6174 C401.470564,1090.83552 399.902659,1092.44458 396.766837,1092.44458 L370.883419,1092.44458 C367.832349,1092.44458 366.265589,1090.92132 366.183128,1087.8748 L366.179692,1087.6174 C366.179692,1084.39928 367.747597,1082.79023 370.883419,1082.79023 L396.766837,1082.79023 Z"/>
        </g>
    </g>
</svg>