<svg width="128" height="128" xmlns="http://www.w3.org/2000/svg">
	<g transform="translate(-331.000000, -333.000000)">
		<g transform="translate(341.000000, 334.000000)">
			<path d="M72.9232821,37.2972311 L72.9232823,37.2972316 C72.2131376,35.1242009 69.8732132,33.9334208 67.6910601,34.6345699 L27.8915851,47.4902858 L27.8915851,47.4902858 C25.7263,48.2498623 24.5887185,50.6153399 25.3507151,52.7737502 C26.085819,54.8559662 28.3295607,55.9980114 30.4526612,55.3705977 L70.2500684,42.5148818 L70.2500683,42.5148818 C72.4327531,41.8088268 73.6290918,39.4737813 72.923297,37.2972316 L72.9232821,37.2972311 Z M78.6457085,57.2589485 L78.6457085,57.2589486 C77.9364382,55.0850933 75.596245,53.8932532 73.4134863,54.5942256 L33.6119434,67.4499414 L33.6119432,67.4499415 C31.4181067,68.1192937 30.183985,70.4347098 30.8554826,72.6215807 C31.5269714,74.8084368 33.8497782,76.0386317 36.0436295,75.3692707 C36.0862871,75.3562557 36.1287316,75.3425565 36.1709465,75.3281787 L75.9724893,62.4745388 L75.9724893,62.4745389 C78.1553661,61.7704524 79.3523399,59.4357352 78.6459987,57.2598039 C78.6459065,57.2595199 78.6458143,57.2592359 78.645722,57.258952 L78.6457085,57.2589485 Z M79.6634892,74.5558546 L39.8578106,87.4115705 L39.8578106,87.4115705 C37.668095,88.0942077 36.4481235,90.4170695 37.1329442,92.5998178 C37.8177603,94.7825661 40.1480366,95.9986558 42.3377522,95.3160142 C42.3648824,95.3075565 42.3919249,95.2988214 42.4188752,95.2898103 L82.222486,82.4340944 L82.222486,82.4340944 C84.4049492,81.7296958 85.6013322,79.3950699 84.8946807,77.2195509 C84.1880337,75.0440319 81.8459557,73.8514556 79.6634925,74.5558586 L79.6634892,74.5558546 Z" id="形状"></path>
			<path d="M103.870043,116.015395 L79.0341438,116.015395 L102.276894,109.176552 C106.304403,108.195138 108.674378,103.905073 107.671134,99.4038103 L88.7300038,14.5135435 L88.7300039,14.5135448 C88.708729,14.1700052 88.6337416,13.8318882 88.5077547,13.5114247 L88.3332779,12.7308481 L88.3332779,12.7308481 C88.0807743,11.6010867 87.3620731,10.6298301 86.3537912,10.0557597 L86.3537912,10.0557597 C86.1295348,9.89818265 85.8850073,9.77143221 85.6268052,9.6789287 L57.8870207,0.164997248 L57.8870207,0.164997255 C57.2363954,-0.0564092678 56.5302372,-0.0549516385 55.8805335,0.169138233 C55.770447,0.187772624 55.6624379,0.189843194 55.5523517,0.216759717 L5.63743031,12.5258646 C1.60162069,13.4969269 -0.77251965,17.7890694 0.228656076,22.2820423 L20.7858297,116.015407 L4.16898903,116.015407 L4.16898885,116.015407 C1.8746832,116.015407 0.0147786921,117.869394 0.0147786921,120.156399 C0.0147787924,122.443405 1.8746832,124.297392 4.16898885,124.297392 L103.870033,124.297392 L103.870032,124.297392 C106.164338,124.297392 108.024243,122.443405 108.024243,120.156399 C108.024243,117.869394 106.164338,116.015407 103.870032,116.015407 L103.870043,116.015395 Z M79.4765653,14.1387414 L67.9236662,19.7994814 C67.2423758,20.1307608 66.4883862,20.1659589 65.7884096,19.8947242 L65.7884096,19.8947243 C65.0114002,19.5818714 64.3961961,18.9663793 64.0851761,18.1907115 L59.444927,7.26884268 L79.4765653,14.1387524 L79.4765653,14.1387414 Z M50.2744545,116.015499 L29.2874587,116.015499 L8.33990011,20.4993054 L8.33990008,20.4993053 C8.33200886,20.4644189 8.32577065,20.4291815 8.3212062,20.3937099 L53.4878469,9.25650949 L58.3752807,20.7560412 C59.3972164,23.1702433 61.2562273,24.9984932 63.6075028,25.9032982 C64.6315153,26.2966917 65.6929089,26.4933892 66.7522362,26.4933892 L66.7522358,26.4933892 C68.0882992,26.490398 69.4058197,26.1815464 70.6031923,25.5906529 L81.5038397,20.2487803 L99.5642038,101.201092 L99.5642038,101.201092 C99.5741792,101.24622 99.5818053,101.291832 99.587052,101.337745 L51.2902416,115.541356 C50.9163627,115.653163 50.5861026,115.820873 50.2745376,116.015499 L50.2744545,116.015499 Z"/>
		</g>
	</g>
</svg>