<svg width="128" height="128" xmlns="http://www.w3.org/2000/svg">
	<g transform="translate(-331.000000, -43.000000)">
		<path d="M378.714657,50 L350.214658,50 C343.495685,50 338,55.4956849 338,62.2146575 L338,90.7146575 C338,97.4323288 343.495685,102.928014 350.214658,102.928014 L378.714657,102.928014 C385.432329,102.928014 390.928014,97.4323288 390.928014,90.7146575 L390.928014,62.2146575 C390.928014,55.4956849 385.432329,50 378.714657,50 Z M382.785355,90.7146575 L382.785355,90.7146637 C382.778195,92.9598781 380.959859,94.7782041 378.714657,94.7853487 L350.214657,94.7853487 L350.214657,94.7853487 C347.968636,94.77963 346.149113,92.960672 346.142671,90.7146637 L346.142671,62.2146637 L346.142671,62.2146469 C346.149114,59.9684175 347.968454,58.1491024 350.214671,58.1426736 L378.71467,58.1426736 L378.71467,58.1426736 C380.960679,58.1491102 382.779642,59.9686387 382.785355,62.2146599 L382.785355,90.7146575 Z M411.285342,58.1426712 L439.785342,58.1426712 C442.025,58.1426712 443.857329,59.975 443.857329,62.4176712 L443.857329,62.4176733 C443.817081,64.6662062 445.607255,66.5216343 447.855787,66.5618856 C450.10432,66.6021331 451.959748,64.8119596 452,62.5634267 L452,62.4176733 C452,55.7000021 446.503013,50.2043171 439.785342,50.2043171 L411.285342,50.2043171 C404.567671,50.2043171 399.071986,55.7000021 399.071986,62.4176733 L399.071986,90.9176733 C399.071986,97.6353445 404.567671,103.132331 411.285342,103.132331 L439.785342,103.132331 C446.503013,103.132331 452,97.6353445 452,90.9176733 L452,86.6426733 L452,86.6426858 C451.959805,84.394153 450.104425,82.6039365 447.855879,82.6441358 C445.663982,82.6833187 443.896513,84.4507756 443.857329,86.6426858 L443.857329,90.7146721 L443.857329,90.7146814 C443.850887,92.9606896 442.031351,94.7796403 439.785329,94.7853533 L411.285329,94.7853533 L411.285329,94.7853533 C409.040115,94.7782096 407.221789,92.9598827 407.214644,90.7146683 L407.214644,62.2146683 L407.214644,62.2147048 C407.220343,59.9686836 409.039282,58.1491343 411.28529,58.1426795 L411.285342,58.1426712 Z M378.714657,111.071986 L350.214658,111.071986 C343.495685,111.071986 338,116.567671 338,123.285342 L338,151.785342 C338,158.503014 343.495685,164 350.214658,164 L378.714657,164 C385.432329,164 390.928014,158.503014 390.928014,151.785342 L390.928014,123.285342 C390.928014,116.567671 385.432329,111.071986 378.714657,111.071986 Z M382.785395,151.785342 L382.785395,151.785306 C382.779644,154.031327 380.960705,155.850877 378.714697,155.857331 L350.214697,155.857331 L350.214697,155.857331 C347.968467,155.850898 346.149139,154.031575 346.142711,151.785345 L346.142711,123.285345 L346.142711,123.285336 C346.149152,121.039327 347.968689,119.220377 350.21471,119.214664 L378.71471,119.214664 L378.71471,119.214664 C380.959924,119.221807 382.77825,121.040134 382.785395,123.285349 L382.785395,151.785342 Z M439.785342,111.071986 L411.285342,111.071986 C404.567671,111.071986 399.071986,116.567671 399.071986,123.285342 L399.071986,151.785342 C399.071986,158.503014 404.567671,164 411.285342,164 L439.785342,164 C446.503014,164 452,158.503014 452,151.785342 L452,123.285342 C452,116.567671 446.503014,111.071986 439.785342,111.071986 Z M443.857329,151.785342 L443.857329,151.785359 C443.850886,154.031588 442.031546,155.850903 439.785329,155.857332 L411.285329,155.857332 L411.285329,155.857332 C409.039321,155.850896 407.220357,154.031367 407.214644,151.785346 L407.214644,123.285346 L407.214644,123.285426 C407.21961,121.039327 409.039152,119.219712 411.285251,119.214663 L439.785251,119.214663 L439.785251,119.214663 C442.031273,119.220382 443.850796,121.03934 443.857329,123.285348 L443.857329,151.785342 Z M370.571986,66.2853425 L358.357329,66.2853425 L358.357329,66.2853425 C356.108431,66.2853425 354.285342,68.1084315 354.285342,70.3573288 C354.285342,72.606226 356.108431,74.4293151 358.357329,74.4293151 L370.571986,74.4293151 L370.571986,74.4293151 C372.820884,74.4293151 374.643973,72.606226 374.643973,70.3573288 C374.643973,68.1084315 372.820884,66.2853425 370.571986,66.2853425 L370.571986,66.2853425 Z"/>
	</g>
</svg>