<svg width="128" height="128" xmlns="http://www.w3.org/2000/svg">
    <g stroke="none" stroke-width="1">
        <g transform="translate(-332.000000, -772.000000)">
            <path d="M396.005973,886.486486 C423.887924,886.486486 446.495969,863.879856 446.495969,836.000023 C446.495969,808.120191 423.899994,785.51356 396.005973,785.51356 C368.129998,785.51356 345.515976,808.120191 345.515976,836.000023 C345.527976,863.879856 368.129998,886.486486 396.005973,886.486486 Z M396.005973,896 C362.879998,896 336,869.141188 336,836 C336,802.858812 362.861951,776 396.005973,776 C429.137923,776 456,802.858812 456,836 C456.011992,869.141188 429.138041,896 396.005973,896 Z M421.325971,818.168145 L421.325971,818.168145 C419.393807,816.336489 416.347096,816.408913 414.503971,818.330307 L390.863973,843.177107 L377.855927,827.519496 L377.855927,827.519496 C376.145892,825.484 373.118798,825.202937 371.063927,826.888866 L371.063927,826.888866 C369.026623,828.601117 368.745666,831.635804 370.433927,833.693671 L386.873926,853.495425 L386.873926,853.495426 C387.765002,854.569298 389.079536,855.200909 390.473926,855.225155 L390.845926,855.225155 L390.845926,855.225155 C392.087153,855.169856 393.258899,854.636122 394.115926,853.735666 L421.487877,824.984962 L421.487878,824.984962 C423.32376,823.061491 423.254315,820.012446 421.332769,818.174726 C421.330474,818.172531 421.328177,818.170338 421.325877,818.168147 L421.325971,818.168145 Z"/>
        </g>
    </g>
</svg>