<svg width="128" height="128" xmlns="http://www.w3.org/2000/svg">
    <g stroke="none" stroke-width="1">
        <g transform="translate(-331.000000, -493.000000)">
            <path d="M407.949866,606.928715 C403.72028,608.343005 399.945388,608.531571 394.995107,608.531571 C366.057152,608.531571 343.768178,585.945902 343.768178,557.000115 C343.768178,528.062999 366.057152,506.445768 395.00367,506.445768 C411.939184,506.445768 427.030118,511.828625 436.922071,525.234327 L429.466675,525.234327 C427.347589,525.234327 425.074084,526.494327 425.074084,529.177183 C425.074084,531.851473 427.3476,533.42004 429.466675,533.42004 L448.873007,533.42004 L448.804373,512.145699 C448.804373,510.028554 446.762502,508.082843 444.643417,508.082843 C442.524331,508.082843 440.82563,510.028554 440.82563,512.145699 L440.885685,516.817134 C429.586768,503.402795 412.642703,497.00001 395.003653,497.00001 L395.003651,497.00001 C361.883544,496.981052 335.019012,523.79026 335,556.879916 C335,556.919939 335,556.959963 335,556.999987 C335,590.17144 361.818966,617 395.003585,617 C399.945256,617 404.886928,616.297143 409.820049,614.882855 C411.939135,614.171426 414.049634,612.071421 413.105914,609.157143 C412.471047,606.859998 409.820049,606.328576 407.949757,606.928576 L407.949866,606.928715 Z M450.220034,545.274366 C453.222785,545.222938 454.749895,546.697222 454.801376,549.697223 L454.998699,560.711514 C455.050174,563.711515 453.574539,565.237226 450.571788,565.28866 C447.569037,565.340088 446.041927,563.865804 445.990446,560.865803 L445.801702,549.851512 C445.750227,546.851511 447.217288,545.3258 450.220039,545.274366 L450.220034,545.274366 Z M450.434516,573.362927 C452.605071,574.571494 453.394372,577.305783 452.184686,579.482928 L446.83979,589.117219 L446.839789,589.11722 C445.633915,591.292431 442.891383,592.079134 440.714178,590.874365 C438.536972,589.669595 437.749548,586.929575 438.955422,584.754363 L444.308893,575.120072 L444.308893,575.120072 C445.513019,572.945365 448.253721,572.157654 450.430422,573.360666 C450.431783,573.361418 450.433144,573.362171 450.434504,573.362924 L450.434516,573.362927 Z M435.103362,595.794377 L435.103362,595.794377 C436.63039,597.750413 436.285015,600.572171 434.331226,602.102945 L425.640409,608.891513 L425.640409,608.891513 C423.678792,610.420552 420.847913,610.071334 419.317472,608.111513 C417.787031,606.151692 418.13657,603.323406 420.098187,601.794367 C420.098187,601.794367 420.098188,601.794367 420.098188,601.794367 L428.789005,595.014365 L428.789005,595.014365 C430.748194,593.482947 433.579026,593.828275 435.111848,595.785672 C435.11188,595.785713 435.111912,595.785754 435.111943,595.785795 L435.103362,595.794377 Z M391.434803,518.274361 C389.315717,518.274361 387.599856,519.68865 387.599856,521.805795 L387.599856,567.242914 L425.691861,567.242914 L425.691861,567.242914 C427.899458,567.285519 429.723629,565.532093 429.766277,563.326519 C429.767061,563.300559 429.767061,563.274595 429.767061,563.248631 L429.767061,563.248627 C429.776543,561.01426 427.971284,559.19524 425.734868,559.185724 C425.72053,559.185663 425.706191,559.185678 425.691853,559.18577 L395.338383,559.18577 L395.338383,521.805762 C395.338383,519.688617 393.553892,518.282905 391.434807,518.282905 L391.434803,518.274361 Z"/>
        </g>
    </g>
</svg>