<svg width="128" height="128" xmlns="http://www.w3.org/2000/svg">
    <g stroke="none" stroke-width="1">
        <g transform="translate(-332.000000, -632.000000)">
            <path d="M355.387049,713.07431 C362.286552,729.437772 378.308592,740.561938 396.525653,740.561938 C417.177772,740.561938 435.00442,726.265373 439.922863,706.255929 C440.522568,703.816197 442.961873,702.33069 445.371193,702.937969 C447.780513,703.545245 449.247504,706.015339 448.647794,708.45507 C442.737642,732.498867 421.330982,749.666667 396.525653,749.666667 C374.067717,749.666667 354.390998,735.593777 346.48384,715.077986 L344.556305,719.181278 C343.489782,721.451677 340.807612,722.416698 338.565514,721.336717 C336.323415,720.256731 335.370423,717.540707 336.436942,715.270308 L343.504565,700.224885 C344.688638,697.704251 347.81352,696.846408 350.092707,698.416319 L363.00399,707.30962 C365.056909,708.723672 365.589101,711.555215 364.192677,713.634047 C362.796251,715.712879 360,716.251788 357.947084,714.837737 L355.387162,713.074453 L355.387049,713.07431 Z M446.298434,676.904267 C438.222256,656.764228 418.736332,643 396.525653,643 C371.778485,643 350.408338,660.088134 344.442146,684.055395 C343.835264,686.493306 345.294974,688.96782 347.702507,689.582354 C350.110029,690.196897 352.553698,688.718762 353.160573,686.28084 C358.125797,666.334986 375.92196,652.104572 396.525751,652.104572 C415.273572,652.104572 431.692824,663.886136 438.241053,681.027746 L433.971056,678.771061 C431.769965,677.60779 429.054356,678.471633 427.905595,680.700505 C426.756825,682.929379 427.6099,685.679265 429.810989,686.842526 L444.39717,694.55127 C446.840867,695.842754 449.846329,694.623521 450.733545,691.980773 L455.759544,677.010038 C456.558689,674.629657 455.300894,672.043953 452.950174,671.234721 C450.599464,670.425489 448.045991,671.699162 447.246846,674.079552 L446.298585,676.904097 L446.298434,676.904267 Z"/>
        </g>
    </g>
</svg>