<svg width="128" height="128" xmlns="http://www.w3.org/2000/svg">
    <g stroke="none" stroke-width="1">
        <g transform="translate(-332.000000, -912.000000)">
            <path d="M453.46238,1026.03813 L426.576357,999.206872 L426.576359,999.206869 C444.165144,977.628313 440.914936,945.889752 419.316664,928.316928 C410.313237,920.991525 399.055609,916.994273 387.444429,917.000006 L387.444429,917.000006 C359.590325,916.994414 337.005668,939.549503 337,967.378331 C337,967.388468 337,967.398605 337,967.408742 L337,967.417902 C337,995.246729 359.580151,1017.80639 387.434256,1017.80639 C398.981781,1017.80639 410.179658,1013.84732 419.156822,1006.59064 L446.042845,1033.45227 L446.042845,1033.45227 C448.072982,1035.50122 451.381254,1035.51796 453.432064,1033.48967 C453.444604,1033.47726 453.457081,1033.4648 453.469495,1033.45227 L453.469495,1033.45227 C455.510168,1031.40704 455.510168,1028.09787 453.469495,1026.05264 L453.46238,1026.03813 Z M403.393412,1005.15692 L403.393412,1005.15692 C398.347128,1007.2865 392.922356,1008.376 387.444415,1008.36022 L387.444414,1008.36022 C370.953029,1008.38704 356.057251,998.520178 349.661809,983.3331 L349.66181,983.333103 C347.526802,978.292118 346.432881,972.872244 346.445509,967.398579 L346.445509,967.397806 C346.41891,950.921386 356.295021,936.039255 371.496074,929.650003 L371.496075,929.650002 C376.541638,927.516944 381.966436,926.424003 387.445072,926.436632 L387.445071,926.436632 C403.936328,926.410087 418.831719,936.27704 425.226904,951.464079 L425.226904,951.46408 C427.361899,956.505065 428.455834,961.924939 428.443192,967.398604 L428.443192,967.399374 C428.46979,983.875794 418.593681,998.757925 403.392628,1005.14718 L403.393412,1005.15692 Z"/>
        </g>
    </g>
</svg>